<?xml version="1.0" encoding="UTF-8"?>
<!DOCTYPE svg PUBLIC "-//W3C//DTD SVG 1.1//EN" "http://www.w3.org/Graphics/SVG/1.1/DTD/svg11.dtd">
<svg width="100%" height="100%" viewBox="0 0 1280 1280" version="1.1"
  xmlns="http://www.w3.org/2000/svg">
  <rect fill="#000" width="1280" height="1280"/>
  <path fill="#fff" d="M354.751,631.961L299.202,631.978C349.653,679.575 433.129,706.954 539.958,704.756C540.075,704.754 540.192,704.75 540.309,704.746L541.668,704.691C541.857,705.183 542.073,705.668 542.311,706.144L542.668,706.858L544.635,712.022L569.127,712.034L570.015,714.568C570.031,714.614 570.33,715.511 570.33,715.511L570.827,717.168L571.608,719.901C571.68,720.153 571.758,720.404 571.841,720.652L572.451,722.483C572.563,722.819 572.685,723.152 572.817,723.481L573.246,724.554L573.533,725.606L574.3,728.673C574.36,728.914 574.425,729.153 574.495,729.391L575.461,732.676L576.047,734.822L577.031,738.364L577.902,741.672L578.622,745.095C578.669,745.316 578.72,745.537 578.775,745.756L579.792,749.823C579.84,750.018 579.892,750.213 579.948,750.406L580.625,752.776L582.572,761.342L583.906,767.056L584.443,769.919C584.465,770.038 584.488,770.157 584.513,770.275L585.515,775.085L586.518,780.098C586.553,780.272 586.59,780.446 586.63,780.618L587.77,785.555L589.126,792.725C589.138,792.787 589.15,792.849 589.162,792.91L590.366,798.93L592.792,811.66C592.815,811.784 592.84,811.907 592.866,812.029L594.225,818.436L595.388,825.022L597.011,834.355C597.025,834.433 597.039,834.511 597.053,834.589L598.839,844.114L600.428,854.043C600.444,854.139 600.46,854.234 600.476,854.329L602.302,864.671L604.118,875.162L605.93,886.036L607.759,897.409L609.165,906.048L611.387,920.788C611.401,920.881 611.415,920.974 611.431,921.067L612.432,927.073L614.84,942.525L616.655,955.223C616.675,955.362 616.696,955.5 616.719,955.639L618.302,965.136L620.097,978.292C620.109,978.381 620.121,978.47 620.135,978.558L621.152,985.269C622.63,995.025 631.652,1001.8 641.435,1000.5C757.417,985.079 860.517,928.901 935.728,846.736L937.963,844.297C942.146,839.735 943.707,833.353 942.103,827.376L931.732,788.745L911.218,712.022L886.757,712.006L879.864,686.051L865.45,632L921.198,631.978L918.578,622.185L903.526,566.056C903.518,566.025 903.51,565.994 903.501,565.963L894.146,531.8L888.265,510.309L884.825,497.359C884.796,497.25 884.766,497.141 884.735,497.033L881.563,485.935L880.416,481.346C880.338,481.033 880.251,480.722 880.156,480.413L879.396,477.944L879.04,476.697C878.968,476.445 878.89,476.194 878.807,475.945L878.457,474.896C861.48,420.399 828.641,372.22 783.897,337.255C783.895,337.253 783.893,337.252 783.892,337.251C731.674,296.475 665.516,274.847 588.268,274.847C425.745,274.847 300.868,379.553 300.868,506.886C300.868,556.11 319.893,598.986 354.751,631.961Z"/>
  <path fill="#ff0" d="M987.534,756.852L990.951,769.631L1007.11,829.818C1007.11,829.818 989.78,848.719 989.802,848.695C911.095,934.684 803.197,993.467 681.821,1009.6L642.223,1014.87C642.223,1014.87 635.222,968.668 635.177,968.369L633.387,955.245C633.387,955.245 631.859,946.077 631.781,945.611L629.92,932.587L627.552,917.395C627.552,917.395 626.57,911.505 626.518,911.193L624.269,896.271C624.269,896.271 622.884,887.763 622.878,887.723L621.059,876.41L619.269,865.67C619.269,865.67 617.471,855.286 617.471,855.285C617.471,855.285 615.652,844.98 615.596,844.659L614.003,834.705C614.003,834.705 612.272,825.477 612.223,825.214L610.559,815.645L609.468,809.469C609.468,809.469 608.19,803.441 608.102,803.027L605.617,789.983C605.617,789.983 604.433,784.065 604.391,783.857L603.079,776.92C603.079,776.92 602.041,772.422 601.906,771.839L600.804,766.328C600.804,766.328 599.82,761.607 599.737,761.208L599.216,758.43C599.216,758.43 597.995,753.199 597.968,753.085L596.156,745.11C596.156,745.11 595.648,743.335 595.462,742.683C595.462,742.683 594.281,737.959 594.096,737.219L593.334,733.601L592.646,730.985C592.646,730.985 591.703,727.591 591.677,727.499L591.148,725.559C591.148,725.559 590.245,722.488 590.009,721.686L589.188,718.402L588.82,717.483L587.712,714.159C572.379,714.102 557.533,713.442 543.181,712.155C542.929,712.132 542.677,712.077 542.425,712.023L541.721,712.022L517.31,712.022C430.321,704.314 362.198,675.405 317.951,631.978L373.647,631.978C373.532,631.833 373.418,631.649 373.305,631.537C335.912,594.618 315.7,547.292 315.7,493.614C315.7,355.331 449.18,239 625.678,239C708.454,239 779.244,262.494 835.204,306.191L835.21,306.196C883.503,343.933 918.992,395.895 937.356,454.693C937.356,454.693 937.637,455.534 937.916,456.373L938.453,458.251L939.466,461.543L940.786,466.822C940.786,466.822 943.625,476.756 943.935,477.838L999.723,477.838L999.723,501.838L950.397,501.838L953.333,512.568C953.333,512.568 962.688,546.729 962.716,546.833C962.716,546.833 977.796,603.066 977.799,603.077L985.531,631.978L943.421,631.978L938.504,613.599L923.452,557.47L914.096,523.305L908.198,501.748L904.74,488.733L901.485,477.344L900.265,472.464L899.451,469.82L899.045,468.396L898.638,467.176C882.773,416.131 852.06,370.984 810.16,338.242C760.938,299.806 698.494,279.673 625.678,279.673C474.35,279.673 356.379,375.052 356.379,493.614C356.379,552.749 386.683,600.573 440.072,631.978L384.648,631.978L384.392,631.981C384.538,632.088 384.684,632.221 384.83,632.307C432.387,660.141 498.124,675.012 576.996,673.389L582.08,673.185L600.59,672.575L595.912,684.777L596.522,685.997C597.862,689.136 599.083,692.325 600.183,695.556L600.59,696.776L601.2,698.809L602.013,701.657L602.624,703.487L603.437,705.52L604.047,707.757L604.861,711.011L605.137,712.021L605.242,712.022L629.568,712.022L630.288,714.469L630.898,716.706L631.915,720.366L632.932,724.23L633.746,728.094L634.763,732.161L635.576,735.008L637.61,743.957L639.034,750.058L639.644,753.311L640.661,758.192L641.678,763.276L642.899,768.564L644.323,776.088L645.543,782.189L647.984,795.001L649.407,801.712L650.628,808.627L652.255,817.982L654.086,827.743L655.713,837.911L657.543,848.283L659.374,858.858L661.205,869.84L663.035,881.228L664.459,889.973L666.696,904.819L667.713,910.92L670.154,926.579L671.985,939.391L673.612,949.152L675.442,962.574L676.459,969.286C788.125,954.44 887.383,900.345 959.792,821.235L962.03,818.795L951.657,780.156L933.847,713.544L933.47,712.023L933.272,712.022L909.03,712.022L899.788,677.456L887.62,631.978L929.73,631.978L939.086,666.948L950.743,710.546L951.118,712.022L975.548,712.022L981.117,732.852L1018.82,732.852L1018.82,756.852L987.534,756.852ZM658.222,365.29C676.075,365.29 690.765,379.978 690.765,397.828C690.765,415.679 676.075,430.367 658.222,430.367C640.369,430.367 625.678,415.679 625.678,397.828C625.678,379.978 640.369,365.29 658.222,365.29Z" />
  <path fill="#0ff" d="M976.087,764L978.883,774.458L995.041,834.644C995.041,834.644 977.712,853.546 977.734,853.521C899.028,939.51 791.13,998.293 669.754,1014.43L630.155,1019.7C630.155,1019.7 623.154,973.494 623.109,973.195L621.319,960.071C621.319,960.071 619.791,950.904 619.713,950.437L617.852,937.413L615.484,922.221C615.484,922.221 614.502,916.332 614.45,916.019L612.202,901.097C612.202,901.097 610.816,892.59 610.81,892.549L608.991,881.236L607.201,870.496L605.403,860.112C605.403,860.112 603.584,849.806 603.528,849.485C603.528,849.485 601.935,839.531 601.935,839.532C601.935,839.532 600.204,830.304 600.155,830.041L598.491,820.472L597.401,814.295C597.401,814.295 596.122,808.267 596.034,807.854L593.549,794.809C593.549,794.809 592.365,788.891 592.324,788.684L591.011,781.747C591.011,781.747 589.973,777.248 589.838,776.666L588.736,771.155C588.736,771.155 587.752,766.433 587.669,766.034L587.148,763.257C587.148,763.257 585.927,758.025 585.901,757.911L584.088,749.936C584.088,749.936 583.581,748.161 583.395,747.51C583.395,747.51 582.213,742.785 582.028,742.045L581.266,738.427L580.578,735.811C580.578,735.811 579.635,732.418 579.609,732.326L579.08,730.385C579.08,730.385 578.177,727.314 577.941,726.513L577.12,723.228L576.752,722.309L575.644,718.986C546.774,718.879 519.63,716.633 494.372,712.435C493.856,712.349 493.341,712.174 492.827,712.022L467.518,712.022C395.461,699.677 338.839,671.45 301.135,631.978L356.776,631.978C356.661,631.793 356.547,631.57 356.433,631.45C322.12,595.306 303.632,549.779 303.632,498.44C303.632,360.158 437.112,243.826 613.61,243.826C696.386,243.826 767.176,267.32 823.137,311.018L823.142,311.022C871.436,348.76 906.925,400.722 925.288,459.52C925.288,459.52 925.569,460.361 925.848,461.199L926.385,463.077L927.398,466.369L928.718,471.649L930.487,477.838L919.723,477.838L919.723,483L993,483L993,507L938.421,507L941.265,517.394C941.265,517.394 950.62,551.555 950.648,551.659C950.648,551.659 965.728,607.893 965.731,607.904L972.172,631.978L930.062,631.978L926.436,618.426L911.385,562.297L902.028,528.131L896.13,506.575L892.672,493.559L889.418,482.171L888.197,477.29L887.384,474.646L886.977,473.223L886.57,472.002C870.705,420.958 839.992,375.811 798.092,343.069C748.87,304.633 686.427,284.499 613.61,284.499C462.282,284.499 344.312,379.878 344.312,498.44C344.312,554.623 371.664,600.595 420.183,631.978L364.723,631.978L364.611,631.981C364.816,632.165 365.021,632.391 365.227,632.523C413.262,663.314 481.8,679.926 564.928,678.215L570.013,678.012L588.522,677.402L583.844,689.604L584.454,690.824C585.794,693.963 587.015,697.151 588.115,700.382L588.522,701.602L589.132,703.636L589.946,706.483L590.556,708.313L591.369,710.347L591.782,712.021L591.978,712.022L616.236,712.022L616.39,712.584L617.203,715.838L618.22,719.295L618.831,721.532L619.848,725.193L620.864,729.056L621.678,732.92L622.695,736.988L623.509,739.835L625.543,748.783L626.966,754.884L627.577,758.138L628.594,763.018L629.611,768.103L630.831,773.39L632.255,780.915L633.475,787.016L635.916,799.828L637.34,806.539L638.56,813.453L640.187,822.808L642.018,832.569L643.645,842.738L645.476,853.109L647.306,863.684L649.137,874.666L650.967,886.055L652.391,894.799L654.629,909.645L655.646,915.746L658.086,931.405L659.917,944.217L661.544,953.979L663.375,967.401L664.392,974.112C776.057,959.266 875.315,905.171 947.725,826.062L949.962,823.621L939.589,784.982L920.352,713.033L920.13,712.023L919.983,712.022L895.671,712.022L887.72,682.282L874.261,631.978L916.371,631.978L927.019,671.775L937.484,710.917L937.709,711.893L962.19,712.022L967.759,732.852L954.816,732.852L954.816,740L1013,740L1013,764L976.087,764ZM575.664,937.106L540.116,937.106L540.116,961.106L575.664,961.106L575.664,937.106ZM540.116,785.102L482.179,785.102L482.179,809.102L540.116,809.102L540.116,785.102ZM261.267,553.496L207.238,553.496L207.238,577.496L261.267,577.496L261.267,553.496ZM646.154,370.116C664.007,370.116 678.698,384.805 678.698,402.655C678.698,420.505 664.007,435.193 646.154,435.193C628.301,435.193 613.61,420.505 613.61,402.655C613.61,384.805 628.301,370.116 646.154,370.116Z"/>
  <path fill="#f0f" d="M529.445,789.697L473.231,789.697L473.231,813.697L534.333,813.697L534.417,814.115L536.902,827.159C536.99,827.573 538.268,833.601 538.268,833.601C538.268,833.6 539.359,839.777 539.359,839.777L541.023,849.346C541.072,849.609 542.803,858.837 542.803,858.837L544.396,868.791C544.452,869.112 546.271,879.417 546.271,879.417L548.069,889.801L549.859,900.542L551.678,911.855C551.684,911.895 553.069,920.403 553.069,920.403L555.318,935.324C555.37,935.637 556.352,941.526 556.352,941.526L556.379,941.701L531.168,941.701L531.168,965.701L560.003,965.701L560.581,969.743C560.659,970.209 562.187,979.376 562.187,979.376L563.977,992.501C564.022,992.799 571.023,1039 571.023,1039L610.621,1033.74C731.997,1017.6 839.896,958.815 918.602,872.827C918.58,872.851 935.909,853.95 935.909,853.95L919.751,793.763L897.896,712.022L873.466,712.022L873.243,711.116L867.887,691.08L852.073,631.978L809.96,631.978L811.502,637.731L828.588,701.588L831.378,712.022L855.817,712.022L856.042,712.973L880.457,804.287L890.83,842.927L888.593,845.367C816.183,924.476 716.925,978.572 605.26,993.417L604.243,986.706L602.412,973.284L600.785,963.523L598.954,950.711L596.513,935.051L595.496,928.95L593.259,914.105L591.835,905.36L590.005,893.972L588.174,882.99L586.344,872.415L584.513,862.043L582.886,851.875L581.055,842.113L579.428,832.759L578.208,825.844L576.784,819.133L574.343,806.321L573.123,800.22L571.699,792.696L570.479,787.408L569.462,782.324L568.445,777.443L567.834,774.189L566.411,768.088L564.377,759.14L563.563,756.293L562.546,752.226L561.732,748.362L560.715,744.498L559.698,740.837L559.088,738.6L558.071,735.143L557.258,731.889L556.647,729.652L555.834,727.619L555.224,725.788L554.41,722.941L553.8,720.907L553.393,719.687C552.513,717.101 551.554,714.541 550.498,712.022L526.022,712.022L525.322,710.129L524.712,708.909L529.39,696.707L510.881,697.317L505.796,697.52C406.252,699.569 327.629,675.345 280.077,631.978L225.736,631.978C250.963,666.112 288.562,693.577 336.746,712.022L361.443,712.022C361.849,712.207 362.256,712.442 362.663,712.596C405.927,728.959 457.628,738.073 516.512,738.291L517.62,741.614L517.988,742.534L518.809,745.818C519.045,746.62 519.948,749.691 519.948,749.691L520.477,751.631C520.503,751.723 521.446,755.117 521.446,755.117L522.134,757.733L522.896,761.351C523.081,762.09 524.262,766.815 524.262,766.815C524.449,767.467 524.956,769.242 524.956,769.242L526.769,777.216C526.795,777.33 528.016,782.562 528.016,782.562L528.537,785.339C528.599,785.638 529.163,788.344 529.445,789.697ZM248.512,558.091L198.29,558.091L198.29,582.091L255.103,582.091C261.304,599.925 270.169,616.627 281.537,631.978L335.879,631.978C303.182,602.184 285.18,563.325 285.18,517.745C285.18,399.183 403.15,303.805 554.478,303.805C627.295,303.805 689.738,323.938 738.96,362.374C780.86,395.116 811.573,440.263 827.438,491.308L827.845,492.528L828.252,493.952L829.065,496.595L830.286,501.476L833.54,512.865L836.998,525.88L842.896,547.437L852.253,581.602L865.761,631.978L907.875,631.978L906.599,627.209C906.596,627.198 891.516,570.965 891.516,570.965C891.488,570.861 882.133,536.699 882.133,536.699L876.275,515.292L872.759,502.056C872.654,501.691 869.586,490.954 869.586,490.954L868.266,485.674L867.253,482.383L866.716,480.504C866.437,479.666 866.156,478.825 866.156,478.825C847.792,420.027 812.303,368.065 764.01,330.327L764.005,330.323C708.044,286.625 637.254,263.132 554.478,263.132C377.98,263.132 244.5,379.463 244.5,517.745C244.5,531.645 245.855,545.12 248.512,558.091ZM587.022,389.422C604.875,389.422 619.565,404.11 619.565,421.96C619.565,439.81 604.875,454.499 587.022,454.499C569.169,454.499 554.478,439.81 554.478,421.96C554.478,404.11 569.169,389.422 587.022,389.422Z"/>
  <path fill="#000" d="M429.241,712.022L404.018,712.022C345.298,696.073 299.202,668.312 268.156,631.978L323.875,631.978C323.852,631.901 323.828,631.827 323.805,631.8C294.169,597.052 278.29,554.465 278.29,506.886C278.29,368.604 411.77,252.272 588.268,252.272C671.044,252.272 741.834,275.766 797.794,319.464L797.8,319.468C846.093,357.206 881.582,409.168 899.946,467.966C899.946,467.966 900.227,468.807 900.506,469.645L901.043,471.524L902.056,474.815L903.376,480.095C903.376,480.095 906.444,490.832 906.548,491.197L910.065,504.433L915.922,525.84C915.922,525.84 925.278,560.002 925.306,560.106C925.306,560.106 940.386,616.339 940.388,616.35L944.57,631.978L902.46,631.978L901.094,626.872L886.042,570.743L876.686,536.577L870.787,515.021L867.33,502.005L864.075,490.617L862.855,485.736L862.041,483.092L861.635,481.669L861.228,480.449C845.363,429.404 814.65,384.257 772.75,351.515C723.527,313.079 661.084,292.946 588.268,292.946C436.94,292.946 318.969,388.324 318.969,506.886C318.969,558.237 341.819,601.058 382.837,631.978L327.235,631.978L327.223,631.979C327.372,632.144 327.522,632.345 327.672,632.458C375.916,668.681 449.109,688.523 539.585,686.661L544.67,686.458L563.18,685.848L558.501,698.05L559.112,699.27C560.452,702.409 561.673,705.597 562.773,708.828L563.18,710.048L563.703,711.952L563.919,711.952L588.182,711.94L588.2,712L589.013,714.929L589.624,716.759L590.437,718.793L591.047,721.03L591.861,724.284L592.878,727.741L593.488,729.978L594.505,733.639L595.522,737.503L596.336,741.366L597.353,745.434L598.166,748.281L600.2,757.229L601.624,763.33L602.234,766.584L603.251,771.465L604.268,776.549L605.489,781.836L606.912,789.361L608.133,795.462L610.574,808.274L611.997,814.985L613.218,821.899L614.845,831.254L616.676,841.016L618.303,851.184L620.133,861.556L621.964,872.131L623.794,883.112L625.625,894.501L627.049,903.245L629.286,918.091L630.303,924.192L632.744,939.851L634.575,952.663L636.202,962.425L638.032,975.847L639.049,982.558C750.715,967.712 849.973,913.617 922.382,834.508L924.62,832.068L914.246,793.428L892.54,712.023L892.408,712.022L868.071,712.022L862.378,690.728L846.659,631.978L888.769,631.978L901.676,680.221L910.131,712.021L910.179,712.022L934.589,712.022L953.541,782.904L969.699,843.09C969.699,843.09 952.369,861.992 952.392,861.967C873.685,947.956 765.787,1006.74 644.411,1022.88L604.813,1028.14C604.813,1028.14 597.812,981.94 597.767,981.642L595.977,968.517C595.977,968.517 594.448,959.35 594.371,958.883L592.51,945.859L590.142,930.667C590.142,930.667 589.16,924.778 589.108,924.465L586.859,909.543C586.859,909.543 585.474,901.036 585.467,900.995L583.649,889.683L581.859,878.942L580.061,868.558C580.061,868.558 578.242,858.252 578.186,857.931L576.593,847.978C576.593,847.978 574.862,838.75 574.813,838.487L573.148,828.918L572.058,822.741C572.058,822.741 570.779,816.714 570.692,816.3L568.207,803.255C568.207,803.255 567.023,797.337 566.981,797.13L565.669,790.193C565.669,790.193 564.63,785.694 564.496,785.112L563.394,779.601C563.394,779.601 562.41,774.879 562.327,774.48L561.806,771.703C561.806,771.703 560.585,766.471 560.558,766.357L558.746,758.382C558.746,758.382 558.238,756.608 558.052,755.956C558.052,755.956 556.871,751.231 556.686,750.492L555.924,746.873L555.236,744.258C555.236,744.258 554.293,740.864 554.267,740.772L553.738,738.831C553.738,738.831 552.834,735.76 552.599,734.959L551.777,731.675L551.41,730.755L550.302,727.432C505.623,727.266 465.08,721.761 429.241,712.022ZM620.812,378.562C638.665,378.562 653.355,393.251 653.355,411.101C653.355,428.951 638.665,443.639 620.812,443.639C602.959,443.639 588.268,428.951 588.268,411.101C588.268,393.251 602.959,378.562 620.812,378.562Z" />
</svg>
